<svg width="327" height="20" viewBox="0 0 327 20" fill="none" xmlns="http://www.w3.org/2000/svg">
<path d="M109.5 10H142.5" stroke="#ACAEAF" stroke-linecap="round"/>
<path d="M159.204 16.14C158.336 16.14 157.58 15.9393 156.936 15.538C156.301 15.1273 155.811 14.544 155.466 13.788C155.13 13.032 154.962 12.136 154.962 11.1C154.962 10.064 155.13 9.168 155.466 8.412C155.811 7.656 156.301 7.07733 156.936 6.676C157.58 6.26533 158.336 6.06 159.204 6.06C160.072 6.06 160.823 6.26533 161.458 6.676C162.093 7.07733 162.578 7.656 162.914 8.412C163.259 9.168 163.432 10.064 163.432 11.1C163.432 12.136 163.259 13.032 162.914 13.788C162.578 14.544 162.093 15.1273 161.458 15.538C160.823 15.9393 160.072 16.14 159.204 16.14ZM159.204 14.922C160.035 14.922 160.693 14.5813 161.178 13.9C161.663 13.2093 161.906 12.276 161.906 11.1C161.906 9.91467 161.663 8.98133 161.178 8.3C160.693 7.61867 160.035 7.278 159.204 7.278C158.373 7.278 157.711 7.62333 157.216 8.314C156.731 8.99533 156.488 9.924 156.488 11.1C156.488 11.8747 156.595 12.5513 156.81 13.13C157.034 13.7087 157.351 14.152 157.762 14.46C158.173 14.768 158.653 14.922 159.204 14.922ZM165.031 6.2H168.181C169.263 6.2 170.071 6.424 170.603 6.872C171.135 7.31067 171.401 7.97333 171.401 8.86C171.401 9.504 171.247 10.0547 170.939 10.512C170.631 10.96 170.197 11.2727 169.637 11.45V11.478C169.823 11.5993 169.973 11.73 170.085 11.87C170.206 12.01 170.304 12.1733 170.379 12.36L171.849 16H170.211L169.007 12.892C168.867 12.5187 168.694 12.2713 168.489 12.15C168.283 12.0193 167.947 11.954 167.481 11.954H166.557V16H165.031V6.2ZM168.069 10.722C169.31 10.722 169.931 10.1433 169.931 8.986C169.931 8.46333 169.772 8.076 169.455 7.824C169.147 7.572 168.671 7.446 168.027 7.446H166.557V10.722H168.069Z" fill="#7D8182"/>
<path d="M184.5 10H217.5" stroke="#ACAEAF" stroke-linecap="round"/>
</svg>
